<?xml version="1.0" standalone="no"?>
<!DOCTYPE svg PUBLIC "-//W3C//DTD SVG 20010904//EN"
 "http://www.w3.org/TR/2001/REC-SVG-20010904/DTD/svg10.dtd">
<svg version="1.0" xmlns="http://www.w3.org/2000/svg"
 width="542.000000pt" height="610.000000pt" viewBox="0 0 542.000000 610.000000"
 preserveAspectRatio="xMidYMid meet">

<g transform="translate(0.000000,610.000000) scale(0.100000,-0.100000)"
fill="#000000" stroke="none">
<path d="M4169 5656 c-53 -52 -118 -123 -144 -158 l-47 -63 79 81 c80 83 217
234 211 234 -2 0 -46 -43 -99 -94z"/>
<path d="M4726 5390 c-24 -22 -46 -40 -49 -40 -11 0 -57 -47 -57 -59 0 -6 -12
-29 -26 -50 -24 -37 -25 -42 -13 -81 12 -40 13 -41 22 -19 6 13 9 34 8 46 -3
33 25 79 63 102 18 12 39 35 46 51 7 17 26 41 41 55 16 13 29 26 29 29 0 15
-25 2 -64 -34z"/>
<path d="M3909 5353 c-13 -16 -12 -17 4 -4 9 7 17 15 17 17 0 8 -8 3 -21 -13z"/>
<path d="M4553 5076 c-18 -11 -35 -31 -38 -43 -4 -19 -17 -26 -45 -25 -3 0 -6
-29 -7 -64 l-2 -65 51 68 c58 79 80 119 76 137 -2 10 -12 8 -35 -8z"/>
<path d="M4258 4968 c-15 -5 -36 -24 -47 -41 -11 -18 -45 -56 -75 -85 -30 -29
-58 -61 -61 -72 -4 -11 -11 -20 -16 -20 -5 0 -9 -4 -9 -10 0 -5 -39 -56 -86
-112 -47 -57 -90 -114 -95 -126 -5 -13 -18 -26 -29 -29 -20 -5 -96 -101 -92
-115 1 -5 -2 -8 -7 -8 -5 0 -11 -6 -14 -13 -6 -17 41 -17 51 0 9 14 57 27 76
20 11 -4 12 -15 4 -49 -12 -57 -12 -58 3 -95 12 -30 11 -34 -31 -88 -27 -35
-59 -63 -85 -75 -24 -11 -52 -34 -64 -52 -67 -106 -96 -136 -158 -164 -30 -14
-53 -30 -53 -39 0 -8 5 -15 10 -15 6 0 10 -9 10 -20 0 -24 -37 -100 -49 -100
-4 0 -14 -11 -21 -24 -7 -14 -32 -37 -54 -51 -24 -15 -47 -40 -54 -57 -7 -19
-15 -27 -23 -22 -8 4 -9 3 -5 -5 4 -6 0 -14 -8 -17 -9 -3 -16 -17 -16 -29 0
-13 -16 -39 -35 -59 -19 -20 -35 -34 -35 -32 0 3 -11 -5 -25 -18 -14 -13 -25
-32 -25 -43 0 -19 -35 -56 -129 -133 -30 -25 -65 -55 -77 -67 -13 -13 -28 -23
-33 -23 -6 0 -29 -26 -52 -57 -24 -32 -45 -60 -49 -63 -3 -3 -14 -22 -23 -42
-10 -20 -22 -40 -27 -43 -6 -3 -10 -14 -10 -23 0 -9 -17 -40 -38 -67 -21 -28
-41 -58 -45 -68 -4 -10 -11 -15 -17 -12 -5 3 -10 -3 -10 -13 0 -11 -7 -25 -15
-32 -8 -7 -15 -19 -15 -26 0 -8 -4 -14 -9 -14 -5 0 -20 -22 -33 -49 -14 -26
-34 -61 -45 -77 -11 -16 -28 -46 -36 -66 -9 -21 -21 -38 -26 -38 -6 0 -11 -7
-11 -15 0 -17 -43 -90 -60 -100 -5 -3 -10 -15 -10 -25 0 -18 3 -18 28 -7 15 6
30 16 34 22 5 6 8 3 8 -7 0 -9 -5 -20 -10 -23 -6 -3 -9 -27 -8 -51 1 -40 4
-45 21 -40 14 3 12 -2 -10 -22 -42 -38 -59 -68 -73 -131 -10 -40 -22 -63 -53
-92 -21 -22 -48 -39 -59 -39 -31 0 -57 -40 -58 -88 0 -47 -52 -152 -75 -152
-8 0 -17 -4 -20 -10 -4 -6 2 -7 17 -2 14 5 62 66 123 157 57 84 115 158 134
171 20 13 50 53 74 96 22 40 51 87 65 103 14 17 35 52 47 78 13 26 32 58 44
70 12 12 37 42 56 67 19 25 48 63 65 85 17 22 54 78 82 125 27 47 58 94 69
105 10 12 22 35 25 53 6 30 47 71 96 98 16 9 26 21 98 120 19 27 60 75 90 107
52 56 54 60 36 73 -19 13 -19 14 0 19 46 15 87 41 95 62 5 13 13 23 19 23 6 0
27 33 46 73 19 39 44 86 57 104 44 64 67 99 94 143 16 24 43 58 61 74 17 16
32 37 32 46 0 9 11 22 25 28 29 13 57 74 49 106 -5 22 33 88 93 159 12 16 23
37 23 48 0 11 7 22 15 25 8 3 20 25 26 48 6 22 33 69 60 103 28 36 49 73 49
87 0 13 7 29 15 36 9 7 13 20 10 28 -3 8 0 21 6 28 8 10 8 14 1 14 -6 0 -9 7
-6 15 4 8 17 15 30 15 19 0 24 5 24 26 0 15 18 53 40 86 31 47 38 65 33 89 -5
25 -3 29 16 29 17 0 21 4 16 19 -4 13 1 24 16 34 12 9 24 30 28 49 5 23 13 34
28 36 20 3 47 49 48 82 0 8 10 16 23 18 14 2 27 14 33 30 6 15 20 37 31 50 24
24 28 22 -42 27 -14 1 -37 -2 -52 -7z"/>
<path d="M3589 4933 c-13 -16 -12 -17 4 -4 16 13 21 21 13 21 -2 0 -10 -8 -17
-17z"/>
<path d="M3460 4783 c-24 -27 -58 -73 -78 -103 -19 -30 -73 -113 -120 -185
-47 -71 -97 -148 -111 -170 -37 -58 -201 -225 -306 -310 -144 -117 -160 -133
-153 -141 5 -4 16 0 26 9 10 9 33 20 51 23 l33 7 -35 -50 c-20 -27 -45 -57
-56 -68 -12 -10 -21 -28 -21 -39 -1 -41 -69 -129 -93 -120 -17 6 -87 -59 -87
-82 0 -8 -6 -17 -14 -20 -8 -3 -17 -16 -20 -30 -4 -14 -16 -26 -31 -30 -14 -3
-23 -10 -20 -14 3 -5 -12 -23 -34 -41 -33 -26 -38 -34 -29 -48 15 -25 -14 -81
-66 -128 -23 -21 -51 -56 -63 -78 -11 -22 -25 -39 -30 -38 -6 1 -8 -8 -6 -21
3 -16 -3 -27 -22 -40 -16 -10 -24 -23 -21 -32 3 -8 0 -14 -7 -14 -7 0 -18 -19
-25 -42 -14 -46 -92 -166 -144 -224 -35 -39 -65 -85 -99 -154 -12 -25 -37 -69
-55 -98 -19 -29 -34 -57 -34 -62 0 -9 -17 -32 -45 -64 -6 -6 -20 -32 -32 -57
-12 -25 -33 -59 -47 -76 -25 -30 -86 -154 -86 -175 0 -10 -33 -85 -67 -152
-14 -26 -13 -28 1 -23 9 4 16 3 16 -2 0 -14 -48 -146 -73 -201 -35 -76 -68
-160 -62 -160 3 0 59 109 126 242 66 134 130 259 141 278 55 93 111 175 193
284 50 65 98 134 107 152 10 18 34 44 53 57 20 14 56 55 80 93 24 38 58 88 75
112 25 34 29 46 20 57 -10 12 -8 16 12 24 35 13 59 45 98 131 11 25 27 56 35
70 8 14 24 43 35 66 10 22 28 51 38 65 11 13 27 39 37 58 9 19 26 43 36 54 10
12 19 26 19 33 0 6 10 18 23 27 18 12 22 23 20 63 -1 39 4 57 33 99 19 29 34
59 34 69 0 9 4 16 9 16 5 0 14 15 20 33 6 19 33 56 59 83 26 27 55 63 66 79
10 17 29 41 41 55 13 14 34 37 48 52 13 14 27 33 30 42 4 9 19 22 34 28 41 18
166 147 192 199 12 24 35 67 51 94 17 28 46 79 66 115 104 189 200 351 252
423 19 26 32 47 29 47 -3 0 -24 -21 -47 -47z"/>
<path d="M3430 3780 c0 -5 4 -10 9 -10 6 0 13 5 16 10 3 6 -1 10 -9 10 -9 0
-16 -4 -16 -10z"/>
<path d="M3917 3633 c-4 -3 -7 -11 -7 -17 0 -6 5 -5 12 2 6 6 9 14 7 17 -3 3
-9 2 -12 -2z"/>
<path d="M4297 3558 c-14 -23 -38 -65 -53 -93 l-26 -50 32 30 c45 42 122 145
104 138 -9 -3 -19 0 -24 7 -5 8 -16 -2 -33 -32z"/>
<path d="M4148 3325 c-9 -12 -30 -25 -45 -28 -17 -3 -34 -16 -40 -29 -12 -24
-28 -87 -20 -78 61 69 128 152 126 155 -2 2 -12 -7 -21 -20z"/>
<path d="M3417 3252 c-35 -38 -9 -72 27 -36 20 19 21 54 3 54 -8 0 -21 -8 -30
-18z"/>
<path d="M3987 3214 c-4 -4 -7 -14 -7 -23 0 -11 3 -12 11 -4 6 6 10 16 7 23
-2 6 -7 8 -11 4z"/>
<path d="M3977 3119 c-31 -34 -57 -65 -57 -69 0 -3 -13 -5 -30 -2 -21 3 -32 0
-36 -12 -9 -22 -23 -10 -17 14 7 27 -13 25 -28 -2 -7 -13 -27 -40 -45 -60 -27
-31 -67 -87 -213 -302 -8 -12 -24 -34 -36 -51 -12 -16 -22 -34 -23 -38 0 -5
-11 -21 -24 -35 -14 -15 -39 -49 -56 -77 -17 -27 -57 -85 -87 -127 -52 -72
-58 -77 -86 -71 -35 7 -52 -20 -25 -40 15 -11 11 -18 -36 -69 -88 -95 -162
-179 -173 -199 -50 -89 -97 -156 -116 -164 -15 -7 -29 -31 -46 -80 -13 -38
-30 -83 -37 -100 -8 -16 -23 -51 -35 -76 -12 -25 -23 -59 -24 -75 -6 -51 -42
-104 -70 -104 -8 0 -20 -7 -27 -15 -7 -8 -16 -15 -21 -15 -13 0 -11 54 2 67 7
7 7 13 1 17 -6 3 -24 -23 -41 -58 -17 -35 -56 -101 -85 -147 -30 -46 -69 -109
-88 -139 -19 -30 -52 -82 -74 -115 -44 -67 -64 -110 -64 -133 0 -21 57 45 66
76 3 12 10 22 15 22 5 0 18 15 29 33 20 34 45 65 97 122 17 19 46 54 64 77 19
24 39 49 46 56 7 7 13 20 13 28 0 8 4 14 9 14 16 0 70 61 98 110 15 25 33 53
41 63 19 21 27 36 74 124 20 39 44 73 53 76 8 4 21 21 29 39 8 18 21 49 30 70
9 20 16 40 16 45 0 18 132 207 186 267 31 33 69 80 86 104 16 23 69 84 117
135 49 50 113 121 142 156 30 35 81 94 114 130 127 140 234 279 256 334 6 15
15 27 19 27 5 0 23 21 41 48 18 26 46 62 62 79 23 25 63 103 53 103 -1 0 -28
-28 -59 -61z"/>
<path d="M3572 3084 c-28 -19 -29 -54 -2 -54 11 0 20 -6 20 -14 0 -19 21 -26
42 -14 42 21 48 91 8 81 -11 -3 -26 0 -33 6 -10 8 -19 6 -35 -5z"/>
<path d="M3711 3023 l-24 -16 22 -9 c26 -9 37 -5 51 23 9 15 7 19 -7 19 -10 0
-29 -8 -42 -17z"/>
<path d="M3440 2900 c-22 -22 -26 -40 -10 -40 14 0 70 42 70 52 0 16 -40 8
-60 -12z"/>
<path d="M3206 2778 c-22 -31 -20 -58 2 -58 25 0 55 34 50 57 -5 26 -34 27
-52 1z"/>
<path d="M3844 2783 c3 -22 46 -31 46 -10 0 14 -20 27 -40 27 -4 0 -7 -8 -6
-17z"/>
<path d="M2984 2667 c-43 -45 -39 -127 6 -127 44 0 84 85 61 129 -15 27 -40
26 -67 -2z"/>
<path d="M2517 2023 c-20 -5 -51 -59 -41 -74 31 -51 137 4 119 61 -6 20 -34
24 -78 13z"/>
<path d="M3395 1930 c4 -6 11 -8 16 -5 14 9 11 15 -7 15 -8 0 -12 -5 -9 -10z"/>
<path d="M2705 1916 c-24 -17 -13 -49 16 -44 31 4 49 35 29 48 -20 13 -23 12
-45 -4z"/>
<path d="M3051 1803 c1 -15 -1 -37 -3 -48 -2 -16 3 -21 29 -23 25 -3 33 1 38
19 4 12 3 24 -3 28 -5 3 -11 15 -13 26 -3 11 -14 21 -26 23 -19 3 -22 -1 -22
-25z"/>
<path d="M2042 1564 c-24 -14 -67 -43 -95 -65 -29 -21 -55 -39 -59 -39 -5 0
-8 -7 -8 -15 0 -8 9 -15 20 -15 18 0 20 -4 14 -35 -3 -19 -4 -35 -1 -35 3 0
20 20 38 45 18 24 39 47 48 50 9 3 23 17 32 32 9 16 26 45 38 66 13 20 21 37
19 36 -1 0 -22 -12 -46 -25z"/>
<path d="M3328 1573 c6 -2 18 -2 25 0 6 3 1 5 -13 5 -14 0 -19 -2 -12 -5z"/>
<path d="M1276 1338 c-20 -31 -59 -119 -54 -123 2 -3 21 29 41 70 36 74 42 97
13 53z"/>
<path d="M1030 893 c-82 -98 -86 -105 -66 -97 14 5 16 2 11 -22 -6 -24 -2 -21
20 16 15 25 31 51 37 58 10 12 59 112 55 112 -1 0 -27 -30 -57 -67z"/>
<path d="M2280 765 c-9 -10 -16 -12 -20 -6 -3 6 -15 -16 -27 -49 -11 -33 -16
-57 -12 -54 16 10 90 124 81 124 -5 0 -15 -7 -22 -15z"/>
<path d="M2154 602 c-28 -19 -88 -127 -99 -177 l-6 -30 19 30 c10 17 23 49 30
71 7 23 26 56 44 73 29 28 37 50 12 33z"/>
<path d="M2031 344 c0 -11 3 -14 6 -6 3 7 2 16 -1 19 -3 4 -6 -2 -5 -13z"/>
</g>
</svg>
